<svg id="Capa_1" data-name="Capa 1" xmlns="http://www.w3.org/2000/svg" viewBox="0 0 829 828"><defs><style>.cls-1{fill:#fff;}</style></defs><path class="cls-1" d="M413.85,258.4c53.22-.74,106.21,2.65,159,9.09,24.6,3,49.25,5.47,72.52,14.86,40.84,16.46,67.53,45.33,76.75,88.83,8.4,39.6,3.29,78.12-11.44,115.54-6.93,17.6-13.06,35.61-24.36,51.13C669.77,560.63,646.6,573.13,620,580.3c-20.31,5.48-41.21,7.22-62,9.63a1244.37,1244.37,0,0,1-139.81,7.88c-28.37.06-56.76-.6-85.12-2.54q-42.18-2.88-84.15-7.7c-32.87-3.79-64.21-11.81-90.68-33C147.14,545.6,137.81,535,131.78,522c-12.77-27.67-24.47-55.82-28.28-86.35-4.55-36.55-2.14-72.16,18.74-104.14,20-30.7,49.64-47.54,84.29-56.53,21.12-5.47,42.9-6.93,64.46-9.44,32-3.72,64.14-5.75,96.32-7C382.8,257.89,398.33,258.4,413.85,258.4ZM425.28,494A808.86,808.86,0,0,0,514,489.14C552.34,485,590.07,478,626.65,465.62c22.39-7.59,44-16.91,63.54-30.46,3.23-2.24,4.69-4.89,5.24-8.87a131.77,131.77,0,0,0,.82-25.33c-1.12-20.12-4.84-39.59-16.59-56.63-15.65-22.71-38.25-34.81-64.34-40.64-31.48-7-63.7-9-95.71-12.26-4.58-.48-4.44,1.93-3.63,5.11a325.13,325.13,0,0,1,8.94,55.35c.35,4.51,2.17,7.31,5.59,9.94A218.83,218.83,0,0,1,555,383.37c4.46,4.63,9,9.28,11.5,15.4,2.17,5.33.52,8.61-5.1,9.78a28.25,28.25,0,0,1-7.18.44,82.33,82.33,0,0,1-24.7-5.36c-5.79-2.17-7.56-1-9.15,5.08-9.75,36.94-32.68,61.13-70.14,70.84-15.48,4-31.24,3.48-46.87,2.54-20.86-1.26-40.41-7.14-57.22-20.27C328.38,448,318.19,429.34,312.7,407.9c-1.17-4.57-3-5.77-7.63-4.25-7.63,2.5-15.39,4.79-23.53,5.16-5,.22-10.82,1.62-13.63-3.7s1.29-9.59,4.35-13.54c8.7-11.24,19.61-20.22,30.65-29a10.86,10.86,0,0,0,4.63-8.56,318.36,318.36,0,0,1,8.32-57.87c1-4.17-.6-5.12-4.19-4.81-9.41.82-18.85,1.45-28.25,2.49-23.58,2.62-47.34,4.27-70.49,9.74-24.79,5.86-46.12,17.7-62,38.3-12.48,16.23-17.31,34.92-19.47,55-2.59,24.07-.53,29.77,20,42.54l1.56.94c26.63,16.07,55.53,26.54,85.52,34.18C297.31,489.47,357.18,494.09,425.28,494ZM355,429.3c3.71-7.24,6-14.39,10.36-20.43,6-8.28,10.85-7.89,15.38,1.27,5.5,11.11,8.46,23,10.35,35.2.62,3.94,2,6,6.27,6.55,12.65,1.54,25.31,1.23,38,.57,3.67-.2,5.43-2.32,6-6.2,2.05-12.75,5-25.3,11-36.9,4.35-8.47,9.07-8.68,14.72-.84a70.21,70.21,0,0,1,8.46,16.65c1.74,4.63,3.27,4.15,5.66.54,7.64-11.5,11.57-24.28,13.28-37.83,4.06-32.17-1.84-63.33-9.57-94.31-.83-3.31-2.52-4.54-5.87-4.69-42.06-1.92-84.12-2.12-126.18-.08-3.4.16-5.17,1.54-6,4.71-8.12,32.83-13.6,65.88-7.51,99.74C341.71,406.17,346.07,418.37,355,429.3ZM576.08,556.06c.7,2.29-1.58,7.29,4.1,6.26,16-2.93,32-6.19,46.83-13.39,3.64-1.76,4.69-3.7,2.37-7.48-6.2-10.14-19.82-15.33-32.25-12C584.54,532.9,576.18,543.3,576.08,556.06ZM222.52,528.13c-8.52-.29-15.75,3.5-21.55,10.3-4.22,5-4,6.52,1.73,9.52,13.89,7.3,29.07,10.4,44.26,13.39,3.79.75,5.47-.79,5.66-4.8C253.38,541.15,239.87,528,222.52,528.13Zm290.84,41.75,41.09-3.68c4.35-.39,6.07-2.14,4.28-6.77-4.4-11.41-15.14-18.31-28.58-17.94-11.95.32-22.81,8.49-26.18,19.68C501.51,569.34,502.1,570.11,513.36,569.88ZM657.5,485.19a45.76,45.76,0,0,1-.82-5.3c-.21-3.74-1.69-4.38-5-2.85a284.64,284.64,0,0,1-44.26,15.61c-4.52,1.22-4.14,3.17-2.33,6.4,6,10.74,18.8,15.92,31.66,12.68A28,28,0,0,0,657.5,485.19ZM325.21,565.51c-.15-11.42-12.25-23-24.87-24.1-15.15-1.28-28.95,7.45-31.29,19.67-.55,2.87.24,3.77,3.18,4.18,16.1,2.24,32.33,2.91,48.48,4.52C324.18,570.12,325.59,568.66,325.21,565.51ZM487.9,538.45c12.48,0,25-9.66,27-21,1.09-6,0-7.56-5.91-7.16-14.85,1-29.67,2.33-44.52,3.32-3.84.26-4.14,1.89-3.33,5.1C463.94,529.78,475.5,538.42,487.9,538.45Zm-141.88,0c12.06,0,23.41-8.34,26.59-19.19,1.19-4,.18-5.41-4-5.67-14.45-.94-28.88-2.16-43.32-3.24-6.55-.49-7.88,1.18-6.25,7.73C321.93,529.61,333.6,538.42,346,538.44ZM205,513c9.48-.84,17.5-4.33,23-12.5,2.3-3.4,1.77-5.31-2.46-6.39a357.16,357.16,0,0,1-43.66-13.88c-3.32-1.31-4.62-.52-4.95,3.2C175.48,499.22,188.73,513.3,205,513Zm211.85,26.72a28.13,28.13,0,0,0,26.88-19.56c1.49-4.89.43-6.63-4.84-6.16a246.8,246.8,0,0,1-44,0c-5.2-.47-5.81,1.61-4.74,5.89C392.84,530.7,404.63,539.55,416.82,539.69ZM374,547.63c-12.45-.06-23.69,7.5-27.37,18.14-1.33,3.87-.71,5.38,3.76,5.44,15.7.23,31.42-.33,47.08,1.06,4.81.42,4.82-1.88,3.75-5.44C397.9,555.69,386.65,547.68,374,547.63Zm61.67,24.76c13.42-1.23,26.89-.82,40.33-1.16,6.73-.17,7.86-1.87,4.53-8C475.5,554,467.62,548.49,457,547.76c-11.56-.79-20.76,3.7-27.14,13.48-1.85,2.83-4.38,6.25-2.95,9.39C428.47,574.09,432.71,571.56,435.69,572.39Zm123.06-45.74c13.61-.07,26-10.19,27.49-22.5.49-3.87.11-6.16-5-5a438.48,438.48,0,0,1-44,7.68c-4.69.54-5.15,2.93-2.77,6.6C540.21,522.23,548.28,526.62,558.75,526.65Zm-283.53,0c10.45,0,18.52-4.4,24.15-13.27,2.22-3.5,2.44-5.39-2.7-6.11-14.69-2.06-29.36-4.4-43.94-7.13-5.58-1-5.75.94-4.69,5.3C251.14,518.26,261.68,526.57,275.22,526.65Z"/><path class="cls-1" d="M402.07,753q2.07-28,4.15-56c.14-1.8.21-3.63.5-5.41,1.92-11.76,10.75-18,22.55-16,4.35.74,7.25,3.51,9.05,7.3,2.5,5.27,4.85,10.62,7,16.05,1.76,4.51,3.66,4.89,6.54.95,5.35-7.32,10.71-14.64,16.25-21.8a40.54,40.54,0,0,1,6.43-6.33A11,11,0,0,1,487,670.3c4.48,2.11,5.77,6.06,5.59,10.51-.89,21.53-1.9,43.05-2.87,64.57-.22,4.82-.34,9.66-.71,14.47-.59,7.86-6.51,13.51-14.35,13.41-5.7-.08-6.7-4.4-6.73-8.91-.1-12.69.09-25.39-.11-38.08-.05-3.39,2-8.47-2.08-9.79-4.57-1.47-5.5,4.23-7.74,7s-3.65,5.82-5.79,8.47c-3.93,4.87-7.42,4.87-11.34,0-3.27-4.08-6.18-8.45-9.34-12.63-1-1.37-1.86-3.61-4.08-2.8-1.8.67-1.32,2.77-1.39,4.31-.8,17.09-1.66,34.19-2.27,51.29-.56,15.54-6.24,22.09-21.86,24.29-2.43.34-3.89,2-5.73,3.12-5.87,3.67-10.64,2.62-14.38-3.23a29.78,29.78,0,0,1-3.39-9c-3.66-14.65-7.26-29.32-11-43.95-1-4.07-1.89-8.56-7.71-8.44-5.66.13-10.43,1.53-11.92,7.91-.87,3.72-1.76,7.43-2.53,11.17-1.12,5.39-2.75,10.58-6.19,14.95-5.74,7.3-15.13,6.13-19-2.35-2.77-6.11-2.57-12.57-1.53-19,2-12.12,3.94-24.24,6.15-36.32.76-4.18,0-4.93-4.18-3.55-5.53,1.81-8.11,5.33-9.07,10.81q-5.32,30.33-10.94,60.61c-1.51,8.21-5,15-14.06,16.94-8.68,1.89-13.59-1.75-13.16-10.52.7-14.47,1.89-28.92,2.89-43.38.19-2.81.58-5.61.62-8.42,0-4.11,1.19-8.89-5.28-9.53-7.49-.75-10.79,1.45-11.8,8.45s-1.64,14-2.72,21c-1.29,8.32-5,11.34-13.51,11.49-2.82,0-5.64,0-8.46,0-5.73,0-9.89-1.8-10.33-8.34-.25-3.62-1.85-3.92-5.26-2.91-17.22,5.15-34.23,4.64-50.57-3.37-20.24-9.92-28.11-25.89-24-48.15,5-27.08,38.91-55.66,65.3-55.07a23,23,0,0,1,17.94,8.56c3.37,4.07,5.39,8.74,2.65,13.92s-7.61,7.08-13.24,6.56A43.74,43.74,0,0,0,190.78,682c-12,7-17.49,18.12-18.27,31.54-.52,8.76,5.73,15,15.61,17.13,8.86,1.95,17.61,1.18,26.38-.41,1.38-.25,2.75-.61,4.15-.77,9.12-1,9.07-1,10.78-10.17q6.76-36.21,13.64-72.39c2.63-13.77,8.92-18.24,21.24-15.43,6.88,1.58,10.08,4.79,9.49,11.79-.87,10.4-2.68,20.73-4.17,31.08-.82,5.78-1.85,11.52-2.69,17.3-.59,4.13.85,6.45,5.49,6.62,10.22.38,12.58-1.23,15.3-11.24,1.15-4.28,2.27-8.57,3.54-12.81,1.62-5.44,5.09-8,10.93-6.84,1.77.35,3.61.35,5.4.59,8.2,1.07,11.08,4.87,10,13.18-.15,1.2-.18,2.42-.42,3.6-.75,3.69-1.66,7.41,3.64,8.49,5.14,1.05,6.88-1.61,8.17-6.25,4-14.53,14.08-21.06,29.09-19.18,15.71,2,24.07,12.49,28.12,26.46,5,17.39,9,35.11,13.38,52.68.52,2.1,1.1,4.19,1.65,6.28Zm-50.9-33.06c.27,2.67-.69,5.57,3.31,5.44,6-.21,10.86-3.3,9.94-6.85C363,712.91,361,707.45,359.1,702c-.37-1.09-1-2.53-2.42-2.08a3.41,3.41,0,0,0-1.6,2.28C353.68,708.2,352.4,714.26,351.17,719.93Z"/><path class="cls-1" d="M578.92,742c-1.59-18.88-3.17-36.31-4.47-53.75-.76-10.24,2.31-15.58,9.32-17.32,8.22-2,15.56,1.59,19.72,10.08,3.2,6.52,6.41,13,10.63,19,1.11,1.56,1.78,3.65,4.47,4.2,1.54-6.13-.37-11.95-1.34-17.75-2.38-14.29-5.07-28.53-7.51-42.81-1.36-7.92,1.41-12.25,9-14.59,1-.29,1.93-.59,2.9-.84,12.45-3.13,15.77-1.26,17.79,11.26,5.54,34.37,10.84,68.77,16.18,103.17.69,4.48.73,9-3.49,12.08s-8.27,1.34-11.95-.73c-9.29-5.24-18.45-10.73-27.53-16.34-4.15-2.57-5.82-1.87-5.44,3.08.11,1.4.06,2.82.08,4.23.24,15.65-5.7,23.05-21.13,26.3-3.32.7-4.61,3.72-6.66,5.8-7.59,7.66-14,7.12-19-2.47-5.59-10.7-10.55-21.73-15.76-32.64-1.89-4-3.86-7.8-9.32-6.68s-9.34,3.86-9.88,9.81c-.52,5.61-.84,11.24-1.26,16.85a27,27,0,0,1-.35,3c-1.63,8.6-6.1,13.65-12.11,13.74-6.24.09-10.8-4.37-12.94-13a42.66,42.66,0,0,1-1.25-8.33c-.94-21.14-.95-42.3-.2-63.42.35-10,5.12-18.42,15-22.35,11.16-4.45,21.8-2.73,31.28,4.73a45.31,45.31,0,0,1,13,17.21C563.85,709.22,571.09,725,578.92,742Zm-53.4-28h-.29c0,2.2-.09,4.4,0,6.59s-.88,5.12,1.59,5.92c3.76,1.22,6.74-1.71,9.73-3.5,2-1.23,1.76-3.52.83-5.41-2.38-4.83-4.89-9.61-7.42-14.37-.55-1-1.2-2.37-2.58-2.15-1.75.28-1.81,2-1.85,3.33C525.45,707.6,525.52,710.8,525.52,714Z"/><path class="cls-1" d="M419.81,146.66c6.42.51,11,1.08,15.54,1.15,3.75.06,5.46,1.32,5.47,5.29.06,19.29-2,38.21-9.68,56.12-4.16,9.73-10.39,17.69-20.59,21.83-3.69,1.5-6,.91-5.46-3.69,2.87-25-3.16-49.22-6.95-73.61-3-19.49-6.23-39-6.19-58.76.05-18.67,3-36.89,10.8-54.07,3.56-7.85,7.37-8.54,13.33-2.2s9.31,14.57,12.13,22.77C434.93,81,438.67,101.14,442,121.42c.78,4.79-.57,7.89-4.47,10.74C431.86,136.29,426.64,141,419.81,146.66Z"/><path class="cls-1" d="M291.11,185.24c-9.58,1.4-17.74,2.42-25.83,3.86-3.17.56-5.44,0-7.45-2.47-14.81-18.09-29.32-36.38-40-57.36-3-5.94-5.62-12.1-6.14-18.83-.64-8.27,2.49-10.71,10.35-8.25,24.36,7.63,43.68,22.81,61,40.91,17.84,18.65,33,39.6,49.75,59.14,8.28,9.64,16.92,18.95,27.6,26,4.14,2.73,2.93,4.43-.55,6.25-9.15,4.78-18.64,4.47-28.18,1.64-20.19-6-36.53-18.33-52.09-31.92-2.61-2.27-1.61-4,.21-6.08C283.31,194.27,286.7,190.3,291.11,185.24Z"/><path class="cls-1" d="M538.5,185.2c4.43,5.18,7.76,9.15,11.18,13,1.88,2.13,2.46,4.06,0,6.17-17.2,14.83-35,28.58-58.08,33.13a32.35,32.35,0,0,1-22.26-3.24c-2.18-1.19-4.69-2.73-1.14-5.22,22-15.43,37-37.43,53.75-57.73C536.61,153.62,551.35,136,569.82,122a121.57,121.57,0,0,1,38.38-20c7.12-2.15,10.24.3,9.68,7.86a45,45,0,0,1-4.45,15.61c-10.69,22.87-26.37,42.33-42.2,61.67-1.74,2.12-3.83,2.5-6.48,2.06C556.64,187.88,548.49,186.72,538.5,185.2Z"/><path class="cls-1" d="M201.11,231.5c-4.86,2.61-9.3,4.9-13.65,7.36a6.2,6.2,0,0,1-6.79,0c-13.92-8.14-27.6-16.62-39.57-27.56-3.74-3.42-7.14-7.17-9.13-11.89-2.23-5.27-.79-7.5,4.91-7.83,18.28-1.07,35,4.62,51.05,12.43,14.7,7.13,28.26,16.26,42.43,24.33,8.93,5.09,17.9,10.1,27.89,12.88,4.9,1.36,4.64,3.57,1.34,6.51-6.47,5.76-14.45,7-22.58,6.74-11.13-.37-21.81-3.31-32.35-6.89-5.6-1.91-7.66-4.53-4.53-10.11C200.94,236,202,234.31,201.11,231.5Z"/><path class="cls-1" d="M627.49,231c.47,2.07.61,3,.91,3.95,3.39,10.26,3.44,10.4-7,13.79-12.09,3.9-24.37,7-37.27,5.16-5.49-.77-10.51-2.71-14.53-6.7-2.28-2.26-3.15-4.38.92-5.6,19.36-5.82,35.6-17.62,52.8-27.56,16.78-9.69,33.85-18.56,53.3-21.73a81.06,81.06,0,0,1,16.24-.66c5.25.2,6.69,2.55,4.85,7.57-1.35,3.66-3.9,6.53-6.6,9.27-12.41,12.61-27.42,21.61-42.46,30.58-2.42,1.44-4.47,1-6.75-.3C637.51,236.25,633.05,234,627.49,231Z"/><path class="cls-1" d="M63.16,553.64a6.4,6.4,0,0,0,0-1.45C57.47,541,57.44,541,69,535.08c10.45-5.31,21.14-9.89,33.2-9.84a23.71,23.71,0,0,1,13.6,4.26c2.29,1.58,3.15,3.31,0,4.88-20.88,10.39-36.11,28.06-54.17,42.08-15.24,11.84-31.19,22.1-50.83,24.93-6.52.93-8.58-1.24-6.85-7.68,1.06-3.94,3.31-7.32,5.73-10.54,9.39-12.45,20.82-22.87,32.63-32.92,2.29-2,4.51-2.09,7.24-1.08C53.88,550.76,58.3,552.06,63.16,553.64Z"/><path class="cls-1" d="M765.83,554c5.93-1.94,10.36-3.24,14.68-4.84a6.52,6.52,0,0,1,7.22,1.15c11.66,9.92,22.94,20.21,32.26,32.45,2.68,3.53,5.22,7.21,6.2,11.63,1.36,6.09-.65,7.92-7.07,7-12.59-1.79-23.92-6.75-34.61-13.4-16.83-10.49-30.93-24.38-46-37-7.26-6.08-14.67-11.94-23.29-16-4.7-2.23-3.23-4.12.07-6.13,6.38-3.88,13.31-4.31,20.41-3,11.2,2.12,21.31,7,31.26,12.38,5,2.71,5.61,5.55,2.27,9.85A57,57,0,0,0,765.83,554Z"/><path class="cls-1" d="M752.12,507.77c1.87-2.74,3.32-4.67,4.56-6.71a6.47,6.47,0,0,1,6.5-3.46c11,.88,22.08,1.46,32.73,4.77a23.27,23.27,0,0,1,6.49,3.11c3.46,2.45,3.66,5-.38,7.35-9.3,5.34-19.46,7.65-30,8.09a238.82,238.82,0,0,1-29.53-.69c-8.77-.71-17.67-1.2-26.45.6-1.34.28-3,.85-4-.36-1.25-1.46-.17-3.11.49-4.49,2-4.14,5.39-6.93,9.33-9.14,7.15-4,15.1-5.3,23-6.86C750.87,498.79,749.94,504.15,752.12,507.77Z"/><path class="cls-1" d="M78.83,508.61c-.12-11,5.94-8.75,11.59-7.64,6.15,1.2,12.15,2.79,17.68,5.84a22.07,22.07,0,0,1,8.79,8.05c1,1.69,2.48,3.73,1.11,5.53-1.21,1.58-3.38.49-5.13.23-9.22-1.36-18.45-.84-27.68-.23-14.26,1-28.53,1.78-42.6-1.77a48.41,48.41,0,0,1-14.51-5.79c-4.08-2.6-4.13-4.92-.08-7.7,3.2-2.2,6.93-3.12,10.66-4.05,8.24-2.05,16.72-2.23,25.07-3.41,4.94-.7,8.63.62,10.92,5.31C75.4,504.52,76.69,505.78,78.83,508.61Z"/><path class="cls-1" d="M537.07,648.05c-3,4.38-2.66,10.74-9.34,12.58-7.54,2.08-14.68,1.92-21.75-1.23-6.07-2.7-6.69-5.11-2.78-10.65,4.28-6.06,10.33-10.06,16.55-13.81,8.43-5.08,17.33-9.34,25.4-15.07,4.36-3.11,7.82-1.23,9,4.37,1.55,7.43-5.37,22.74-11.78,26.64C538.75,653.07,539.43,648.59,537.07,648.05Z"/><path class="cls-1" d="M204.35,409.66c-12.33-.37-24-2.66-33.17-11.87s-7.24-18.5,5.17-23c11.64-4.26,23.79-3.45,35.82-2.52A60.23,60.23,0,0,1,229.81,376c12.13,4.79,14,17.73,3.77,26-7.27,5.89-16.2,6.64-25,7.62A37.11,37.11,0,0,1,204.35,409.66Z"/><path class="cls-1" d="M623.05,409.73A66.87,66.87,0,0,1,606.29,407c-6.11-1.85-11.51-4.88-14.57-10.89-4.27-8.39-2.05-16,6.75-19.29,18-6.67,36.66-7.65,55.06-2,12.92,3.94,14.67,13.74,5.1,23.24C651,405.68,639.27,409.78,623.05,409.73Z"/></svg>