<svg id="Capa_1" data-name="Capa 1" xmlns="http://www.w3.org/2000/svg" viewBox="0 0 829 828"><defs><style>.cls-1{fill:#fff;}</style></defs><path class="cls-1" d="M328.16,607.81c1.51-1,3-2.09,4.46-3.21,16.48-12.72,32.85-25.59,49.49-38.12,4.18-3.15,5.83-6.63,5.78-11.79-.21-23,0-46-.7-69-.28-9.19.61-9.78,9.94-9.92,20.64-.3,41.28.57,61.94-.85,46.31-3.19,79.91-30,89.65-75.39,7.69-35.83,7.47-72.29-2.36-107.89-6.74-24.42-21.56-43.3-44.43-55.29-16.17-8.48-33.54-11.91-51.55-12.21-19-.32-38-.07-57-.07V224H333.93c-8.62,0-8.73.12-8.73,8.58q0,184.92-.08,369.85c0,1.33,0,2.67.07,4C325.32,608.67,326.46,609,328.16,607.81Zm59-309.93c0-9.48.54-10.12,9.76-10,17.81.29,35.67-1.18,53.41.82,22.42,2.52,36.19,15.94,38.36,38.48a220.19,220.19,0,0,1-.16,44.9c-3,27.29-19.92,38.74-45.29,39.75-16.12.65-32.3.17-48.45.11-6.33,0-7.55-1.19-7.58-7.69-.09-18.15,0-36.3,0-54.46h0Q387.13,323.85,387.14,297.88Z"/><path class="cls-1" d="M412.23,828c224,1.72,409.22-174.39,416.57-399.82C836.54,190.88,649.53-.57,415-.46,181.32-.35,2.73,185.77.25,409.71-2.31,640.91,184.87,827.61,412.23,828Zm2.55-781.18c197.66-.44,365.35,155.45,369,367.1C779.71,628.11,613.8,776,427.34,781.7,216.07,788.11,47.58,620,47.67,414.24,47.75,206,217.3,46.22,414.78,46.81Z"/></svg>